<?xml version="1.0" encoding="UTF-8" standalone="no"?>
<!-- Created with Inkscape (http://www.inkscape.org/) -->

<svg
   width="743.07733"
   height="451.70792"
   viewBox="0 0 196.60588 119.51439"
   version="1.1"
   id="svg5"
   xml:space="preserve"
   xmlns:xlink="http://www.w3.org/1999/xlink"
   xmlns="http://www.w3.org/2000/svg"
   xmlns:svg="http://www.w3.org/2000/svg"><defs
     id="defs2"><linearGradient
       id="linearGradient2047"><stop
         style="stop-color:#22ffc4;stop-opacity:0.97647059;"
         offset="0"
         id="stop2045" /><stop
         style="stop-color:#ffffff;stop-opacity:0;"
         offset="1"
         id="stop2043" /></linearGradient><linearGradient
       xlink:href="#linearGradient2047"
       id="linearGradient2049"
       x1="145.59064"
       y1="422.90616"
       x2="142.99081"
       y2="298.54749"
       gradientUnits="userSpaceOnUse" /><filter
       style="color-interpolation-filters:sRGB"
       id="filter442"
       x="-0.10639494"
       y="-0.21982516"
       width="1.2127899"
       height="1.4396503"><feGaussianBlur
         stdDeviation="4.09764 3.78321"
         result="blur"
         id="feGaussianBlur440" /></filter></defs><g
     id="g5095"
     style="display:inline"
     transform="translate(-44.369238,-308.28758)"><path
       style="fill:url(#linearGradient2049);fill-opacity:1;stroke:#000000;stroke-width:0.265;stroke-linecap:butt;stroke-linejoin:miter;stroke-dasharray:none;stroke-opacity:0"
       d="m 44.42702,423.12907 c 63.48997,-30.76694 101.6461,-114.60335 98.73297,-114.70896 -2.05647,-0.0746 30.09803,79.73629 97.6651,115.01535 2.4169,1.26194 -196.39807,-0.30639 -196.39807,-0.30639 z"
       id="path1265" /><path
       style="display:inline;fill:#ffffff;fill-opacity:1;stroke:none;stroke-width:0.7;stroke-dasharray:none;stroke-opacity:0"
       d="m 149.352,418.68602 c -0.29847,-0.0911 -0.88767,-0.47169 -0.88835,-0.5738 0,-0.0543 -0.0396,-0.11176 -0.0872,-0.12763 -0.0476,-0.0159 -0.11428,-0.14286 -0.14816,-0.28222 -0.0339,-0.13935 -0.0616,-7.39712 -0.0616,-16.12837 v -15.875 l 0.23432,-0.34508 c 0.32949,-0.48524 0.81079,-0.73931 1.31588,-0.69464 0.79764,0.0705 1.32327,0.6473 1.37197,1.50539 0.0145,0.25611 0.0293,7.41895 0.0327,15.91743 l 0.006,15.45176 -0.25597,0.4165 c -0.34038,0.55387 -1.0269,0.88616 -1.51992,0.73566 z m -14.05467,-0.26805 c -0.49013,-0.31219 -0.56113,-0.4094 -0.6768,-0.92664 -0.0728,-0.32547 -0.10972,-28.26451 -0.0417,-31.51653 0.0174,-0.82942 0.0395,-0.94186 0.25178,-1.27652 0.2877,-0.45368 0.81411,-0.7281 1.30499,-0.68032 0.46857,0.0456 0.99211,0.37746 1.19371,0.75664 0.16764,0.31531 0.16934,0.4811 0.16934,16.58111 v 16.26262 l -0.24775,0.36537 c -0.29073,0.42876 -0.5984,0.6081 -1.13842,0.66362 -0.33418,0.0344 -0.45413,8.5e-4 -0.81517,-0.22935 z m 6.86948,-3.08687 c -0.48165,-0.16558 -0.96395,-0.51772 -1.12845,-0.8239 -0.10235,-0.19053 -0.14879,-0.47144 -0.15053,-0.91053 -0.002,-0.59393 0.019,-0.66958 0.3304,-1.16963 0.43215,-0.694 0.89574,-0.98333 1.57328,-0.98192 1.02375,0.002 1.79711,0.9549 1.73284,2.13477 -0.0285,0.5231 -0.26067,1.00978 -0.68169,1.42894 -0.31796,0.31655 -1.19943,0.48606 -1.67585,0.32227 z m -44.153698,-2.50767 c -0.463172,-0.15744 -0.559196,-0.23002 -0.79816,-0.60336 -0.318877,-0.49818 -0.186754,-1.39321 0.270256,-1.83076 0.456862,-0.4374 0.319645,-0.42872 6.828642,-0.43219 l 6.07406,-0.003 4.76739,-4.76143 c 2.62208,-2.61879 4.85485,-4.78621 4.96171,-4.8165 0.31276,-0.0886 0.96829,-0.0793 1.22259,0.0174 0.2833,0.10771 0.69488,0.55096 0.76276,0.82146 0.0271,0.10783 0.0326,0.42505 0.0124,0.70493 l -0.0368,0.50888 -4.75214,4.75854 c -2.61368,2.61719 -4.83964,4.87283 -4.94658,5.01253 -0.29353,0.38345 -0.50038,0.53717 -0.87323,0.6489 -0.24867,0.0745 -2.02829,0.10443 -6.69704,0.11253 -5.859399,0.0102 -6.392699,-8.4e-4 -6.795848,-0.13767 z m 77.291518,0.0748 c -0.51848,-0.0756 -0.89126,-0.29466 -1.17045,-0.68764 -0.1032,-0.14527 -2.32794,-2.40564 -4.94388,-5.02306 l -4.75625,-4.75893 -0.0368,-0.50888 c -0.0202,-0.27988 -0.0147,-0.5971 0.0124,-0.70494 0.0679,-0.2705 0.47946,-0.71374 0.76276,-0.82145 0.2543,-0.0967 0.90983,-0.10601 1.22259,-0.0174 0.10686,0.0303 2.33963,2.1977 4.96171,4.81649 l 4.76739,4.76144 6.07406,0.003 c 6.509,0.003 6.37178,-0.005 6.82864,0.4322 0.45702,0.43755 0.58914,1.33258 0.27026,1.83076 -0.23008,0.35945 -0.32757,0.43927 -0.71968,0.58931 -0.32427,0.12407 -1.03293,0.13997 -6.58637,0.14774 -3.42265,0.005 -6.43152,-0.0217 -6.68637,-0.0589 z m -20.26444,-2.80222 c -0.47615,-0.11408 -0.74397,-0.34605 -0.97159,-0.84157 -0.15905,-0.34626 -0.16347,-0.61699 -0.14943,-9.16214 0.008,-4.84293 0.0443,-8.90058 0.0807,-9.017 0.12077,-0.38592 0.26093,-0.67733 0.32579,-0.67733 0.0352,0 0.064,-0.0397 0.064,-0.0882 0,-0.12138 0.25322,-0.37433 0.50763,-0.50709 0.11622,-0.0606 0.42397,-0.11025 0.68391,-0.11025 0.3915,0 0.53684,0.045 0.84703,0.26243 0.39376,0.27598 7.26776,7.13273 7.28441,7.26614 0.005,0.0425 0.0241,0.19161 0.0418,0.33131 0.06,0.47451 -0.12179,1.07278 -0.4021,1.32304 -0.47607,0.42503 -0.74996,0.50829 -1.31142,0.3986 l -0.49692,-0.0971 -2.31168,-2.29395 c -1.27142,-1.26167 -2.31917,-2.3003 -2.32833,-2.30806 -0.009,-0.008 -0.0148,3.15454 -0.0126,7.02733 0.003,4.78146 -0.0256,7.17312 -0.0881,7.45171 -0.10622,0.47292 -0.36616,0.77918 -0.84723,0.99818 -0.38587,0.17566 -0.3693,0.17486 -0.91581,0.0439 z m -13.07227,-2.35384 c -0.26582,-0.16635 -0.48476,-0.37881 -0.55034,-0.53406 -0.0873,-0.20669 -0.10891,-3.078 -0.10891,-14.48181 v -14.224 l 0.20679,-0.36108 c 0.27143,-0.47395 0.68752,-0.7166 1.23991,-0.72307 0.71576,-0.008 1.30341,0.49686 1.43797,1.2363 0.0271,0.14916 0.0515,6.55843 0.054,14.24285 l 0.005,13.97166 -0.26071,0.42168 c -0.32506,0.52575 -0.51849,0.64608 -1.11186,0.69166 -0.41734,0.0321 -0.51983,0.005 -0.91162,-0.24013 z m -11.90071,-3.93354 c -0.0212,-0.0212 -0.11808,-0.0539 -0.21516,-0.0726 -0.26682,-0.0514 -0.68151,-0.38793 -0.88895,-0.72144 -0.18191,-0.29245 -0.1854,-0.35887 -0.20241,-3.85358 -0.01,-1.9558 -0.0191,-3.61152 -0.0212,-3.67938 -0.002,-0.0679 -0.98493,0.84918 -2.18402,2.03787 -1.47501,1.46221 -2.24863,2.17068 -2.39183,2.19044 -0.61413,0.0847 -0.98129,0.0246 -1.33131,-0.21789 -0.19558,-0.1355 -0.35705,-0.294 -0.35881,-0.35221 -0.002,-0.0582 -0.0409,-0.10583 -0.0869,-0.10583 -0.0914,0 -0.21816,-0.60197 -0.1929,-0.91587 0.009,-0.1079 0.0999,-0.3365 0.20265,-0.508 0.10277,-0.17149 1.62281,-1.7596 3.37788,-3.52913 1.75507,-1.76953 3.26187,-3.34116 3.34845,-3.4925 0.0866,-0.15134 0.20636,-0.27517 0.26617,-0.27517 0.0598,0 0.10875,-0.0331 0.10875,-0.0737 0,-0.12948 0.72926,-0.28565 1.02776,-0.22009 0.39386,0.0865 0.81318,0.42862 1.02616,0.83722 0.17842,0.34231 0.18014,0.39925 0.18399,6.10287 l 0.004,5.75733 -0.27743,0.4009 c -0.282,0.4075 -0.47908,0.55912 -0.80763,0.62135 -0.1007,0.0191 -0.26531,0.0512 -0.36582,0.0714 -0.10051,0.0202 -0.20013,0.0193 -0.22138,-0.002 z"
       id="path1197" /><path
       style="display:inline;fill:#ffffff;fill-opacity:1;stroke:none;stroke-width:0.7;stroke-dasharray:none;stroke-opacity:0;filter:url(#filter442)"
       d="m 149.352,418.68602 c -0.29847,-0.0911 -0.88767,-0.47169 -0.88835,-0.5738 0,-0.0543 -0.0396,-0.11176 -0.0872,-0.12763 -0.0476,-0.0159 -0.11428,-0.14286 -0.14816,-0.28222 -0.0339,-0.13935 -0.0616,-7.39712 -0.0616,-16.12837 v -15.875 l 0.23432,-0.34508 c 0.32949,-0.48524 0.81079,-0.73931 1.31588,-0.69464 0.79764,0.0705 1.32327,0.6473 1.37197,1.50539 0.0145,0.25611 0.0293,7.41895 0.0327,15.91743 l 0.006,15.45176 -0.25597,0.4165 c -0.34038,0.55387 -1.0269,0.88616 -1.51992,0.73566 z m -14.05467,-0.26805 c -0.49013,-0.31219 -0.56113,-0.4094 -0.6768,-0.92664 -0.0728,-0.32547 -0.10972,-28.26451 -0.0417,-31.51653 0.0174,-0.82942 0.0395,-0.94186 0.25178,-1.27652 0.2877,-0.45368 0.81411,-0.7281 1.30499,-0.68032 0.46857,0.0456 0.99211,0.37746 1.19371,0.75664 0.16764,0.31531 0.16934,0.4811 0.16934,16.58111 v 16.26262 l -0.24775,0.36537 c -0.29073,0.42876 -0.5984,0.6081 -1.13842,0.66362 -0.33418,0.0344 -0.45413,8.5e-4 -0.81517,-0.22935 z m 6.86948,-3.08687 c -0.48165,-0.16558 -0.96395,-0.51772 -1.12845,-0.8239 -0.10235,-0.19053 -0.14879,-0.47144 -0.15053,-0.91053 -0.002,-0.59393 0.019,-0.66958 0.3304,-1.16963 0.43215,-0.694 0.89574,-0.98333 1.57328,-0.98192 1.02375,0.002 1.79711,0.9549 1.73284,2.13477 -0.0285,0.5231 -0.26067,1.00978 -0.68169,1.42894 -0.31796,0.31655 -1.19943,0.48606 -1.67585,0.32227 z m -44.153698,-2.50767 c -0.463172,-0.15744 -0.559196,-0.23002 -0.79816,-0.60336 -0.318877,-0.49818 -0.186754,-1.39321 0.270256,-1.83076 0.456862,-0.4374 0.319645,-0.42872 6.828642,-0.43219 l 6.07406,-0.003 4.76739,-4.76143 c 2.62208,-2.61879 4.85485,-4.78621 4.96171,-4.8165 0.31276,-0.0886 0.96829,-0.0793 1.22259,0.0174 0.2833,0.10771 0.69488,0.55096 0.76276,0.82146 0.0271,0.10783 0.0326,0.42505 0.0124,0.70493 l -0.0368,0.50888 -4.75214,4.75854 c -2.61368,2.61719 -4.83964,4.87283 -4.94658,5.01253 -0.29353,0.38345 -0.50038,0.53717 -0.87323,0.6489 -0.24867,0.0745 -2.02829,0.10443 -6.69704,0.11253 -5.859399,0.0102 -6.392699,-8.4e-4 -6.795848,-0.13767 z m 77.291518,0.0748 c -0.51848,-0.0756 -0.89126,-0.29466 -1.17045,-0.68764 -0.1032,-0.14527 -2.32794,-2.40564 -4.94388,-5.02306 l -4.75625,-4.75893 -0.0368,-0.50888 c -0.0202,-0.27988 -0.0147,-0.5971 0.0124,-0.70494 0.0679,-0.2705 0.47946,-0.71374 0.76276,-0.82145 0.2543,-0.0967 0.90983,-0.10601 1.22259,-0.0174 0.10686,0.0303 2.33963,2.1977 4.96171,4.81649 l 4.76739,4.76144 6.07406,0.003 c 6.509,0.003 6.37178,-0.005 6.82864,0.4322 0.45702,0.43755 0.58914,1.33258 0.27026,1.83076 -0.23008,0.35945 -0.32757,0.43927 -0.71968,0.58931 -0.32427,0.12407 -1.03293,0.13997 -6.58637,0.14774 -3.42265,0.005 -6.43152,-0.0217 -6.68637,-0.0589 z m -20.26444,-2.80222 c -0.47615,-0.11408 -0.74397,-0.34605 -0.97159,-0.84157 -0.15905,-0.34626 -0.16347,-0.61699 -0.14943,-9.16214 0.008,-4.84293 0.0443,-8.90058 0.0807,-9.017 0.12077,-0.38592 0.26093,-0.67733 0.32579,-0.67733 0.0352,0 0.064,-0.0397 0.064,-0.0882 0,-0.12138 0.25322,-0.37433 0.50763,-0.50709 0.11622,-0.0606 0.42397,-0.11025 0.68391,-0.11025 0.3915,0 0.53684,0.045 0.84703,0.26243 0.39376,0.27598 7.26776,7.13273 7.28441,7.26614 0.005,0.0425 0.0241,0.19161 0.0418,0.33131 0.06,0.47451 -0.12179,1.07278 -0.4021,1.32304 -0.47607,0.42503 -0.74996,0.50829 -1.31142,0.3986 l -0.49692,-0.0971 -2.31168,-2.29395 c -1.27142,-1.26167 -2.31917,-2.3003 -2.32833,-2.30806 -0.009,-0.008 -0.0148,3.15454 -0.0126,7.02733 0.003,4.78146 -0.0256,7.17312 -0.0881,7.45171 -0.10622,0.47292 -0.36616,0.77918 -0.84723,0.99818 -0.38587,0.17566 -0.3693,0.17486 -0.91581,0.0439 z m -13.07227,-2.35384 c -0.26582,-0.16635 -0.48476,-0.37881 -0.55034,-0.53406 -0.0873,-0.20669 -0.10891,-3.078 -0.10891,-14.48181 v -14.224 l 0.20679,-0.36108 c 0.27143,-0.47395 0.68752,-0.7166 1.23991,-0.72307 0.71576,-0.008 1.30341,0.49686 1.43797,1.2363 0.0271,0.14916 0.0515,6.55843 0.054,14.24285 l 0.005,13.97166 -0.26071,0.42168 c -0.32506,0.52575 -0.51849,0.64608 -1.11186,0.69166 -0.41734,0.0321 -0.51983,0.005 -0.91162,-0.24013 z m -11.90071,-3.93354 c -0.0212,-0.0212 -0.11808,-0.0539 -0.21516,-0.0726 -0.26682,-0.0514 -0.68151,-0.38793 -0.88895,-0.72144 -0.18191,-0.29245 -0.1854,-0.35887 -0.20241,-3.85358 -0.01,-1.9558 -0.0191,-3.61152 -0.0212,-3.67938 -0.002,-0.0679 -0.98493,0.84918 -2.18402,2.03787 -1.47501,1.46221 -2.24863,2.17068 -2.39183,2.19044 -0.61413,0.0847 -0.98129,0.0246 -1.33131,-0.21789 -0.19558,-0.1355 -0.35705,-0.294 -0.35881,-0.35221 -0.002,-0.0582 -0.0409,-0.10583 -0.0869,-0.10583 -0.0914,0 -0.21816,-0.60197 -0.1929,-0.91587 0.009,-0.1079 0.0999,-0.3365 0.20265,-0.508 0.10277,-0.17149 1.62281,-1.7596 3.37788,-3.52913 1.75507,-1.76953 3.26187,-3.34116 3.34845,-3.4925 0.0866,-0.15134 0.20636,-0.27517 0.26617,-0.27517 0.0598,0 0.10875,-0.0331 0.10875,-0.0737 0,-0.12948 0.72926,-0.28565 1.02776,-0.22009 0.39386,0.0865 0.81318,0.42862 1.02616,0.83722 0.17842,0.34231 0.18014,0.39925 0.18399,6.10287 l 0.004,5.75733 -0.27743,0.4009 c -0.282,0.4075 -0.47908,0.55912 -0.80763,0.62135 -0.1007,0.0191 -0.26531,0.0512 -0.36582,0.0714 -0.10051,0.0202 -0.20013,0.0193 -0.22138,-0.002 z"
       id="path418" /></g></svg>
