<?xml version="1.0" encoding="UTF-8" standalone="no"?>
<!-- Created with Inkscape (http://www.inkscape.org/) -->

<svg
   width="1740.3826"
   height="864.5307"
   viewBox="0 0 460.47623 228.74041"
   version="1.1"
   id="svg5"
   xml:space="preserve"
   sodipodi:docname="New document 1.2023_06_23_22_00_48.0.svg"
   inkscape:version="1.2.2 (732a01da63, 2022-12-09)"
   inkscape:export-filename="Documents\GitHub\landing\assets\greengrad.svg"
   inkscape:export-xdpi="96"
   inkscape:export-ydpi="96"
   xmlns:inkscape="http://www.inkscape.org/namespaces/inkscape"
   xmlns:sodipodi="http://sodipodi.sourceforge.net/DTD/sodipodi-0.dtd"
   xmlns:xlink="http://www.w3.org/1999/xlink"
   xmlns="http://www.w3.org/2000/svg"
   xmlns:svg="http://www.w3.org/2000/svg"><sodipodi:namedview
     id="namedview7"
     pagecolor="#ffff6a"
     bordercolor="#666666"
     borderopacity="1.0"
     inkscape:showpageshadow="2"
     inkscape:pageopacity="1"
     inkscape:pagecheckerboard="0"
     inkscape:deskcolor="#d1d1d1"
     inkscape:document-units="mm"
     showgrid="false"
     inkscape:zoom="1.2212323"
     inkscape:cx="106.85928"
     inkscape:cy="583.8365"
     inkscape:window-width="1920"
     inkscape:window-height="1009"
     inkscape:window-x="1912"
     inkscape:window-y="-8"
     inkscape:window-maximized="1"
     inkscape:current-layer="g5095" /><defs
     id="defs2"><linearGradient
       inkscape:collect="always"
       id="linearGradient2047"><stop
         style="stop-color:#22ffc4;stop-opacity:0.97647059;"
         offset="0"
         id="stop2045" /><stop
         style="stop-color:#ffffff;stop-opacity:0;"
         offset="1"
         id="stop2043" /></linearGradient><linearGradient
       inkscape:collect="always"
       xlink:href="#linearGradient2047"
       id="linearGradient2049"
       x1="141.91393"
       y1="422.90616"
       x2="142.99081"
       y2="298.54749"
       gradientUnits="userSpaceOnUse" /></defs><g
     id="g5095"
     style="display:inline"
     inkscape:label="Arrow"
     transform="translate(86.553177,-308.28765)"><path
       style="fill:url(#linearGradient2049);fill-opacity:1;stroke:#000000;stroke-width:0.265;stroke-linecap:butt;stroke-linejoin:miter;stroke-dasharray:none;stroke-opacity:0"
       d="M -86.096506,536.49458 C 110.36814,410.13294 146.07312,308.52572 143.15999,308.42011 c -2.05647,-0.0746 33.16196,102.40939 230.63978,227.76807 2.30189,1.46124 -459.896276,0.3064 -459.896276,0.3064 z"
       id="path1265"
       sodipodi:nodetypes="cssc"
       inkscape:label="Gradient" /><path
       style="display:inline;fill:#ffffff;fill-opacity:1;stroke:none;stroke-width:0.7;stroke-dasharray:none;stroke-opacity:0"
       d="m 149.352,418.68602 c -0.29847,-0.0911 -0.88767,-0.47169 -0.88835,-0.5738 0,-0.0543 -0.0396,-0.11176 -0.0872,-0.12763 -0.0476,-0.0159 -0.11428,-0.14286 -0.14816,-0.28222 -0.0339,-0.13935 -0.0616,-7.39712 -0.0616,-16.12837 v -15.875 l 0.23432,-0.34508 c 0.32949,-0.48524 0.81079,-0.73931 1.31588,-0.69464 0.79764,0.0705 1.32327,0.6473 1.37197,1.50539 0.0145,0.25611 0.0293,7.41895 0.0327,15.91743 l 0.006,15.45176 -0.25597,0.4165 c -0.34038,0.55387 -1.0269,0.88616 -1.51992,0.73566 z m -14.05467,-0.26805 c -0.49013,-0.31219 -0.56113,-0.4094 -0.6768,-0.92664 -0.0728,-0.32547 -0.10972,-28.26451 -0.0417,-31.51653 0.0174,-0.82942 0.0395,-0.94186 0.25178,-1.27652 0.2877,-0.45368 0.81411,-0.7281 1.30499,-0.68032 0.46857,0.0456 0.99211,0.37746 1.19371,0.75664 0.16764,0.31531 0.16934,0.4811 0.16934,16.58111 v 16.26262 l -0.24775,0.36537 c -0.29073,0.42876 -0.5984,0.6081 -1.13842,0.66362 -0.33418,0.0344 -0.45413,8.5e-4 -0.81517,-0.22935 z m 6.86948,-3.08687 c -0.48165,-0.16558 -0.96395,-0.51772 -1.12845,-0.8239 -0.10235,-0.19053 -0.14879,-0.47144 -0.15053,-0.91053 -0.002,-0.59393 0.019,-0.66958 0.3304,-1.16963 0.43215,-0.694 0.89574,-0.98333 1.57328,-0.98192 1.02375,0.002 1.79711,0.9549 1.73284,2.13477 -0.0285,0.5231 -0.26067,1.00978 -0.68169,1.42894 -0.31796,0.31655 -1.19943,0.48606 -1.67585,0.32227 z m -44.153698,-2.50767 c -0.463172,-0.15744 -0.559196,-0.23002 -0.79816,-0.60336 -0.318877,-0.49818 -0.186754,-1.39321 0.270256,-1.83076 0.456862,-0.4374 0.319645,-0.42872 6.828642,-0.43219 l 6.07406,-0.003 4.76739,-4.76143 c 2.62208,-2.61879 4.85485,-4.78621 4.96171,-4.8165 0.31276,-0.0886 0.96829,-0.0793 1.22259,0.0174 0.2833,0.10771 0.69488,0.55096 0.76276,0.82146 0.0271,0.10783 0.0326,0.42505 0.0124,0.70493 l -0.0368,0.50888 -4.75214,4.75854 c -2.61368,2.61719 -4.83964,4.87283 -4.94658,5.01253 -0.29353,0.38345 -0.50038,0.53717 -0.87323,0.6489 -0.24867,0.0745 -2.02829,0.10443 -6.69704,0.11253 -5.859399,0.0102 -6.392699,-8.4e-4 -6.795848,-0.13767 z m 77.291518,0.0748 c -0.51848,-0.0756 -0.89126,-0.29466 -1.17045,-0.68764 -0.1032,-0.14527 -2.32794,-2.40564 -4.94388,-5.02306 l -4.75625,-4.75893 -0.0368,-0.50888 c -0.0202,-0.27988 -0.0147,-0.5971 0.0124,-0.70494 0.0679,-0.2705 0.47946,-0.71374 0.76276,-0.82145 0.2543,-0.0967 0.90983,-0.10601 1.22259,-0.0174 0.10686,0.0303 2.33963,2.1977 4.96171,4.81649 l 4.76739,4.76144 6.07406,0.003 c 6.509,0.003 6.37178,-0.005 6.82864,0.4322 0.45702,0.43755 0.58914,1.33258 0.27026,1.83076 -0.23008,0.35945 -0.32757,0.43927 -0.71968,0.58931 -0.32427,0.12407 -1.03293,0.13997 -6.58637,0.14774 -3.42265,0.005 -6.43152,-0.0217 -6.68637,-0.0589 z m -20.26444,-2.80222 c -0.47615,-0.11408 -0.74397,-0.34605 -0.97159,-0.84157 -0.15905,-0.34626 -0.16347,-0.61699 -0.14943,-9.16214 0.008,-4.84293 0.0443,-8.90058 0.0807,-9.017 0.12077,-0.38592 0.26093,-0.67733 0.32579,-0.67733 0.0352,0 0.064,-0.0397 0.064,-0.0882 0,-0.12138 0.25322,-0.37433 0.50763,-0.50709 0.11622,-0.0606 0.42397,-0.11025 0.68391,-0.11025 0.3915,0 0.53684,0.045 0.84703,0.26243 0.39376,0.27598 7.26776,7.13273 7.28441,7.26614 0.005,0.0425 0.0241,0.19161 0.0418,0.33131 0.06,0.47451 -0.12179,1.07278 -0.4021,1.32304 -0.47607,0.42503 -0.74996,0.50829 -1.31142,0.3986 l -0.49692,-0.0971 -2.31168,-2.29395 c -1.27142,-1.26167 -2.31917,-2.3003 -2.32833,-2.30806 -0.009,-0.008 -0.0148,3.15454 -0.0126,7.02733 0.003,4.78146 -0.0256,7.17312 -0.0881,7.45171 -0.10622,0.47292 -0.36616,0.77918 -0.84723,0.99818 -0.38587,0.17566 -0.3693,0.17486 -0.91581,0.0439 z m -13.07227,-2.35384 c -0.26582,-0.16635 -0.48476,-0.37881 -0.55034,-0.53406 -0.0873,-0.20669 -0.10891,-3.078 -0.10891,-14.48181 v -14.224 l 0.20679,-0.36108 c 0.27143,-0.47395 0.68752,-0.7166 1.23991,-0.72307 0.71576,-0.008 1.30341,0.49686 1.43797,1.2363 0.0271,0.14916 0.0515,6.55843 0.054,14.24285 l 0.005,13.97166 -0.26071,0.42168 c -0.32506,0.52575 -0.51849,0.64608 -1.11186,0.69166 -0.41734,0.0321 -0.51983,0.005 -0.91162,-0.24013 z m -11.90071,-3.93354 c -0.0212,-0.0212 -0.11808,-0.0539 -0.21516,-0.0726 -0.26682,-0.0514 -0.68151,-0.38793 -0.88895,-0.72144 -0.18191,-0.29245 -0.1854,-0.35887 -0.20241,-3.85358 -0.01,-1.9558 -0.0191,-3.61152 -0.0212,-3.67938 -0.002,-0.0679 -0.98493,0.84918 -2.18402,2.03787 -1.47501,1.46221 -2.24863,2.17068 -2.39183,2.19044 -0.61413,0.0847 -0.98129,0.0246 -1.33131,-0.21789 -0.19558,-0.1355 -0.35705,-0.294 -0.35881,-0.35221 -0.002,-0.0582 -0.0409,-0.10583 -0.0869,-0.10583 -0.0914,0 -0.21816,-0.60197 -0.1929,-0.91587 0.009,-0.1079 0.0999,-0.3365 0.20265,-0.508 0.10277,-0.17149 1.62281,-1.7596 3.37788,-3.52913 1.75507,-1.76953 3.26187,-3.34116 3.34845,-3.4925 0.0866,-0.15134 0.20636,-0.27517 0.26617,-0.27517 0.0598,0 0.10875,-0.0331 0.10875,-0.0737 0,-0.12948 0.72926,-0.28565 1.02776,-0.22009 0.39386,0.0865 0.81318,0.42862 1.02616,0.83722 0.17842,0.34231 0.18014,0.39925 0.18399,6.10287 l 0.004,5.75733 -0.27743,0.4009 c -0.282,0.4075 -0.47908,0.55912 -0.80763,0.62135 -0.1007,0.0191 -0.26531,0.0512 -0.36582,0.0714 -0.10051,0.0202 -0.20013,0.0193 -0.22138,-0.002 z"
       id="path1197"
       sodipodi:nodetypes="ccssscsssccsccssssssscsssssscscssscssccssssscsssscccsscssssscccsscccssscsssssccsscscccssscsscscsccssccsssccssscscsssssssccsssss" /></g><g
     id="g6653"
     inkscape:label="phone"
     transform="translate(86.553177,-308.28765)"
     style="display:none"><path
       id="path6659"
       style="display:inline;fill:#fefefe;stroke-width:0.0846667"
       d="m 184.85903,285.41048 -42.05273,10e-4 c -28.10918,7e-4 -42.22928,0.0297 -42.58448,0.0873 -1.297695,0.21039 -2.283554,0.74217 -3.371891,1.81901 -0.637187,0.63044 -0.832763,0.88947 -1.119312,1.48208 -0.190925,0.39486 -0.391794,0.92709 -0.446484,1.18287 -0.151467,0.70821 -0.157801,15.31002 -0.0072,16.50856 0.182757,1.45479 0.724864,2.51122 1.812809,3.53208 0.884451,0.82991 1.843191,1.34162 2.986388,1.5937 0.41736,0.0921 7.94787,0.11282 42.2062,0.11782 l 41.69823,0.006 0.83044,-0.20671 c 0.99849,-0.24853 1.5968,-0.5123 2.30115,-1.01492 1.43438,-1.02355 2.489,-2.73727 2.497,-4.0597 0.002,-0.30782 0.0119,-0.32188 0.14987,-0.20103 0.1375,0.12047 0.2968,0.16609 1.01337,0.29043 0.14971,0.026 0.3161,0.10046 0.37,0.16536 0.14734,0.17745 2.29969,0.16931 2.44792,-0.009 0.058,-0.0699 0.20975,-0.12661 0.33693,-0.12661 0.12934,0 0.33168,-0.0935 0.4594,-0.21187 0.12562,-0.11636 0.27248,-0.21187 0.32608,-0.21187 0.15222,0 0.65577,-0.52451 0.65577,-0.68317 0,-0.0783 0.0567,-0.19004 0.12661,-0.24804 0.0698,-0.058 0.12712,-0.15296 0.12712,-0.21136 0,-0.0584 0.0573,-0.15387 0.12713,-0.21187 0.0698,-0.058 0.12712,-0.23201 0.12712,-0.38654 0,-0.15453 0.0382,-0.30452 0.0847,-0.33332 0.0481,-0.0297 0.0848,-0.45068 0.0848,-0.97358 0,-0.52291 -0.0368,-0.94388 -0.0848,-0.97358 -0.0466,-0.0288 -0.0847,-0.15969 -0.0847,-0.29094 0,-0.13125 -0.0572,-0.28617 -0.12712,-0.34417 -0.0698,-0.058 -0.12713,-0.23503 -0.12713,-0.39377 0,-0.17845 -0.0486,-0.30735 -0.12712,-0.33745 -0.0698,-0.0268 -0.12661,-0.11872 -0.12661,-0.20412 0,-0.0854 -0.0382,-0.17894 -0.0847,-0.20774 -0.0466,-0.0288 -0.0848,-0.11857 -0.0848,-0.19947 0,-0.0809 -0.11289,-0.24026 -0.25063,-0.3545 -0.13773,-0.11423 -0.25173,-0.29366 -0.25373,-0.39843 -0.002,-0.1048 -0.0418,-0.19017 -0.0884,-0.19017 -0.0466,0 -0.0848,-0.0775 -0.0848,-0.17208 0,-0.0946 -0.0572,-0.19386 -0.12713,-0.22066 -0.0771,-0.0296 -0.1266,-0.15805 -0.1266,-0.32608 0,-0.1523 0.0567,-0.32388 0.1266,-0.38188 0.0698,-0.058 0.12713,-0.17472 0.12713,-0.25942 0,-0.0847 0.0382,-0.17791 0.0848,-0.20671 0.0466,-0.0288 0.0847,-0.1188 0.0847,-0.2005 0,-0.0817 0.11454,-0.25787 0.25424,-0.39171 0.1397,-0.13384 0.25373,-0.28703 0.25373,-0.34003 0,-0.053 0.0955,-0.18571 0.21188,-0.29507 0.11646,-0.10937 0.21135,-0.26383 0.21135,-0.34313 0,-0.0793 0.0573,-0.1916 0.12713,-0.2496 0.0698,-0.058 0.12712,-0.21292 0.12712,-0.34417 0,-0.13124 0.0382,-0.26213 0.0847,-0.29093 0.0499,-0.0308 0.0848,-0.53561 0.0848,-1.22784 0,-0.69223 -0.0349,-1.19651 -0.0848,-1.22731 -0.0466,-0.0288 -0.0847,-0.15753 -0.0847,-0.28577 0,-0.14855 -0.0924,-0.32143 -0.25425,-0.47646 -0.1397,-0.13384 -0.25373,-0.29857 -0.25373,-0.36587 0,-0.15848 -0.32388,-0.43821 -0.50694,-0.43821 -0.0781,0 -0.19448,-0.0981 -0.25838,-0.21756 -0.0671,-0.12541 -0.21686,-0.23708 -0.35451,-0.26458 -0.13116,-0.0262 -0.25912,-0.0808 -0.28422,-0.12144 -0.0251,-0.0405 -0.19815,-0.0739 -0.38498,-0.0739 -0.18908,0 -0.39594,-0.0564 -0.46664,-0.12713 -0.0819,-0.0819 -0.29162,-0.1266 -0.58963,-0.1266 -0.33281,0 -0.47598,0.0352 -0.51108,0.1266 -0.0329,0.0859 -0.1674,0.12713 -0.41548,0.12713 -0.20182,0 -0.3903,0.0381 -0.4191,0.0847 -0.0288,0.0466 -0.18504,0.0848 -0.34674,0.0848 -0.18323,0 -0.31222,0.048 -0.34262,0.12712 -0.0299,0.0779 -0.15824,0.12661 -0.33176,0.12661 -0.18026,0 -0.31449,0.0539 -0.36949,0.14831 -0.0657,0.1129 -0.0864,0.0274 -0.0904,-0.35967 -0.006,-0.71082 -0.12489,-1.15954 -0.52452,-1.98799 -0.28609,-0.59309 -0.48051,-0.8506 -1.11776,-1.48156 -0.87149,-0.86292 -1.56918,-1.30692 -2.53369,-1.61283 z" /><path
       id="path6657"
       style="display:inline;fill:#484746;stroke-width:0.0846667"
       d="m 142.78304,286.68069 c -28.0821,0.002 -40.58847,0.0298 -40.92515,0.092 -2.167208,0.40063 -4.229906,2.22874 -4.616771,4.09226 -0.06598,0.31795 -0.08583,2.64649 -0.06718,7.80779 0.02644,7.31604 0.0274,7.35803 0.21239,7.90546 0.598906,1.77227 2.403687,3.32329 4.383201,3.76721 0.42149,0.0945 7.32902,0.11441 40.56548,0.12041 39.034,0.007 40.0743,0.003 40.69932,-0.15348 1.95291,-0.48802 3.41322,-1.53779 4.2323,-3.04271 0.42456,-0.78011 0.48163,-1.20983 0.48163,-3.63698 v -2.23294 l 0.51521,0.51521 c 1.49284,1.49284 3.21415,2.53073 4.72013,2.84582 1.07608,0.22515 1.33164,-0.14986 0.94464,-1.38441 -0.30565,-0.97503 -0.98745,-2.17693 -1.81022,-3.1905 -0.38234,-0.47101 -1.3859,-1.46793 -1.8061,-1.79421 l -0.27233,-0.21187 0.44183,-0.34262 c 0.73837,-0.57257 2.29514,-2.19624 2.74557,-2.8639 0.85501,-1.26736 1.19654,-2.21136 0.93069,-2.56987 -0.15737,-0.21222 -0.58925,-0.19692 -1.32291,0.047 -1.63249,0.54278 -3.37007,1.61961 -4.67982,2.89957 -0.17232,0.1684 -0.3375,0.30592 -0.3669,0.30592 -0.0291,0 -0.0443,-1.09516 -0.0331,-2.43396 0.0179,-2.13492 0.002,-2.48642 -0.12815,-2.85771 -0.32626,-0.9321 -1.0108,-1.81034 -1.97714,-2.53731 -0.64058,-0.48189 -1.07674,-0.70501 -1.92082,-0.98237 -0.49946,-0.16379 -0.99145,-0.16581 -40.94582,-0.16381 z m 40.22597,2.11667 0.54157,0.24546 c 0.65405,0.29656 1.23501,0.81133 1.66812,1.47794 l 0.32194,0.49558 -0.0295,6.82852 c -0.0161,3.75561 -0.0365,6.88524 -0.0455,6.95514 -0.009,0.0698 -0.007,0.3366 0.004,0.59272 0.0254,0.58753 -0.16732,0.98239 -0.83096,1.70119 -0.66292,0.71801 -1.42639,1.07799 -2.50993,1.18288 h -5.1e-4 c -0.43415,0.042 -18.06335,0.0747 -40.26938,0.0739 -37.8876,-7.3e-4 -39.51395,-0.007 -39.92004,-0.15399 -0.73333,-0.26521 -1.08895,-0.48698 -1.53014,-0.95395 -0.733793,-0.77668 -0.874498,-1.0949 -0.933278,-2.11098 -0.04103,-0.70929 -0.08598,-11.13052 -0.05581,-12.94701 0.0042,-0.25612 0.0085,-0.58636 0.0093,-0.73381 0.0039,-0.69435 0.974788,-1.8374 1.959568,-2.30735 l 0.63511,-0.30334 40.49262,-0.0212 z m -50.03984,4.65191 v 4.87102 l 5.2e-4,4.87102 h 1.05833 1.05833 l 10e-4,-1.84123 c 8.8e-4,-1.29299 0.032,-1.90247 0.10542,-2.04536 0.35683,-0.6943 1.51845,-0.72276 1.82728,-0.0449 0.0643,0.14126 0.0977,0.84846 0.0977,2.07274 v 1.8588 h 1.05833 1.05833 l -0.004,-2.2226 c -0.004,-2.39181 -0.0346,-2.60066 -0.45733,-3.15485 -0.33756,-0.44255 -0.82027,-0.65515 -1.59267,-0.70125 -0.81642,-0.0488 -1.30333,0.0806 -1.75131,0.46405 l -0.34107,0.29146 -0.0227,-2.1854 -0.0222,-2.18539 -1.03714,-0.0243 z m 47.01212,0.19585 c -0.0546,0.002 -0.10817,0.008 -0.1602,0.0176 -0.3308,0.062 -0.74943,0.39261 -0.92346,0.72916 -0.28869,0.55825 -0.0523,1.33259 0.51108,1.67431 0.25541,0.1549 0.92377,0.0694 1.26039,-0.16123 0.58464,-0.40062 0.76059,-1.35214 0.3421,-1.8495 -0.2195,-0.26085 -0.64754,-0.42552 -1.02991,-0.41031 z m -54.80182,0.74104 v 4.40232 4.40283 h 1.14308 1.14308 v -1.47381 -1.47382 l 1.20665,-0.0294 c 1.08431,-0.0266 1.25378,-0.0514 1.67276,-0.24753 0.59114,-0.27667 0.98488,-0.67024 1.26246,-1.26194 0.19366,-0.41279 0.21862,-0.57318 0.21859,-1.39785 -3e-5,-1.12695 -0.17484,-1.60446 -0.80254,-2.19159 -0.68857,-0.64409 -1.1212,-0.72916 -3.69383,-0.72916 z m 2.28616,1.86294 h 0.65629 c 0.8194,4e-4 1.14915,0.16907 1.2976,0.66456 0.21575,0.72008 -0.0945,1.29922 -0.7736,1.44487 v 5.2e-4 c -0.23471,0.0503 -0.59631,0.0915 -0.80357,0.0915 h -0.37672 v -1.10071 z m 32.38717,0.75912 c -0.61543,-0.004 -1.2734,0.0909 -1.65674,0.2682 -1.14798,0.53079 -1.77251,1.55555 -1.77251,2.90939 0,1.70655 1.10838,2.95254 2.81689,3.16725 1.57749,0.19826 2.89359,-0.34802 3.44578,-1.43041 0.2987,-0.58579 0.2883,-0.59376 -0.77101,-0.59376 -0.92168,0 -0.94768,0.005 -1.22628,0.2496 -0.48987,0.43012 -1.2366,0.44649 -1.72238,0.0377 -0.22407,-0.18854 -0.42688,-0.63488 -0.42788,-0.94361 -3.7e-4,-0.082 0.50615,-0.10594 2.25154,-0.10594 h 2.25206 l -0.0563,-0.52916 c -0.16801,-1.57958 -0.87608,-2.54183 -2.14043,-2.90939 -0.26958,-0.0784 -0.62345,-0.1172 -0.99271,-0.11989 z m -15.798,0.009 c -0.43244,9.9e-4 -0.85788,0.0391 -1.10536,0.1142 -1.85917,0.56429 -2.82473,2.21137 -2.31097,3.94136 0.38952,1.31166 1.39632,2.09999 2.91403,2.28204 1.66924,0.20022 3.15958,-0.49653 3.79926,-1.77664 0.91011,-1.82131 -0.0944,-3.90331 -2.14819,-4.45192 -0.27647,-0.0741 -0.71633,-0.11003 -1.14877,-0.10904 z m 8.82685,0.0785 c -0.71214,0 -1.125,0.13014 -1.54047,0.48576 l -0.33797,0.28938 v -0.3452 -0.34571 h -1.05833 -1.05833 v 3.00602 3.0055 h 1.05833 1.05833 l 0.001,-1.84123 c 0.001,-1.96706 0.0272,-2.11299 0.43046,-2.41226 0.24829,-0.18433 0.8831,-0.22194 1.1684,-0.0692 0.38643,0.20679 0.43202,0.46509 0.43202,2.45566 v 1.86707 h 1.05833 1.05834 v -2.21279 c 0,-2.5226 -0.0368,-2.73764 -0.55449,-3.25613 -0.42304,-0.42367 -0.97945,-0.62683 -1.71566,-0.62683 z m 6.86056,1.26969 c 0.22738,0 0.52718,0.0591 0.66663,0.13125 0.22559,0.11666 0.58362,0.56812 0.58446,0.73691 1.7e-4,0.0349 -0.53556,0.0631 -1.19062,0.0631 h -1.19115 l 0.0543,-0.19017 c 0.0297,-0.10478 0.19063,-0.31427 0.35812,-0.46561 0.25597,-0.23127 0.37077,-0.27543 0.7183,-0.27543 z m -15.58664,0.44338 c 1.16743,0.0452 1.88022,1.81154 0.61546,2.53266 -0.58983,0.33632 -1.19308,0.24527 -1.65467,-0.24959 -0.63479,-0.68053 -0.4688,-1.67332 0.35346,-2.11357 0.23768,-0.12725 0.46956,-0.17787 0.68575,-0.1695 z"
       sodipodi:nodetypes="cccssccssscssssccsssssssssccccccccsscccsssccccccccccccccsccccssccccccsssssssccccccccssssscccsccscccscsscssscsccssscssscsscccccccccccccscccsssssssccsssssss" /></g><g
     id="g6592"
     inkscape:label="gmail"
     transform="translate(86.553177,-308.28765)"
     style="display:none"><path
       id="path6594"
       style="display:inline;fill:#fd6458;stroke-width:0.0846667"
       d="m 162.43766,320.98144 c -5.46776,6e-5 -12.09865,0.003 -20.07061,0.008 -39.74396,0.0253 -42.23422,0.035 -42.681635,0.17311 -1.970998,0.60826 -3.580774,2.05642 -4.237468,3.81166 l -0.197404,0.5271 -0.02584,7.87394 c -0.02713,8.20105 -0.0023,8.94977 0.327112,9.92497 0.613181,1.81517 2.518497,3.43916 4.528405,3.85971 h 5.2e-4 c 0.51044,0.10674 6.12025,0.12129 42.41343,0.11059 l 41.82536,-0.0124 0.6413,-0.18759 c 1.28088,-0.37473 2.264,-0.94743 3.06183,-1.78387 0.91131,-0.9554 1.44702,-2.01449 1.56114,-3.08715 0.048,-0.45154 0.0626,-0.47883 0.19431,-0.35966 0.0784,0.0709 0.26124,0.12919 0.40617,0.12919 0.14493,0 0.28695,0.0376 0.31575,0.0842 0.0288,0.0466 0.15968,0.0847 0.29093,0.0847 0.13125,0 0.28617,0.0573 0.34417,0.12712 0.084,0.1012 0.33354,0.12713 1.22783,0.12713 0.89428,0 1.14332,-0.0259 1.22732,-0.12713 0.058,-0.0698 0.20845,-0.12712 0.33434,-0.12712 0.13466,0 0.31089,-0.0868 0.42788,-0.21136 0.10937,-0.11646 0.25695,-0.21187 0.32815,-0.21187 0.17959,0 0.68781,-0.50897 0.68781,-0.68885 0,-0.0813 0.0355,-0.16989 0.0791,-0.19689 0.13797,-0.0853 0.34416,-0.57059 0.34416,-0.81028 0,-0.12684 0.0572,-0.2779 0.12713,-0.3359 0.0987,-0.0819 0.12712,-0.31117 0.12712,-1.02888 0,-0.7429 -0.025,-0.93335 -0.12712,-0.97255 -0.0777,-0.0298 -0.12713,-0.15792 -0.12713,-0.33073 0,-0.15525 -0.0382,-0.30606 -0.0847,-0.33486 -0.0466,-0.0288 -0.0848,-0.17909 -0.0848,-0.33435 0,-0.17281 -0.0488,-0.30144 -0.1266,-0.33124 -0.0698,-0.0268 -0.12713,-0.12724 -0.12713,-0.22324 0,-0.0961 -0.0572,-0.19696 -0.12712,-0.22376 -0.0698,-0.0268 -0.12712,-0.12574 -0.12712,-0.22014 0,-0.0945 -0.0949,-0.26005 -0.21136,-0.36794 -0.11647,-0.10789 -0.21187,-0.25316 -0.21187,-0.32246 0,-0.0693 -0.0382,-0.14949 -0.0847,-0.17829 -0.0466,-0.0288 -0.0848,-0.1272 -0.0848,-0.2191 0,-0.0918 -0.0572,-0.18921 -0.12713,-0.21601 -0.1421,-0.0545 -0.18093,-0.66433 -0.0475,-0.74673 0.0988,-0.0611 0.34417,-0.54509 0.34417,-0.67902 0,-0.0546 0.0954,-0.18881 0.21187,-0.29818 0.11646,-0.10936 0.21136,-0.26481 0.21136,-0.34571 0,-0.0809 0.11454,-0.24315 0.25424,-0.3607 0.1397,-0.11755 0.25373,-0.27097 0.25373,-0.34107 0,-0.0701 0.0382,-0.15103 0.0848,-0.17983 0.0466,-0.0288 0.0847,-0.17879 0.0847,-0.33331 0,-0.15454 0.0572,-0.32854 0.12713,-0.38654 0.1013,-0.0841 0.1266,-0.3349 0.1266,-1.24076 0,-0.93103 -0.0225,-1.1439 -0.1266,-1.1839 -0.0758,-0.0291 -0.12713,-0.15636 -0.12713,-0.31575 0,-0.18616 -0.0644,-0.31558 -0.21187,-0.42633 -0.11637,-0.0874 -0.21136,-0.23321 -0.21136,-0.32401 0,-0.18476 -0.31184,-0.48176 -0.51056,-0.48576 -0.0712,-0.002 -0.18575,-0.0819 -0.25425,-0.1788 -0.1702,-0.24076 -0.72988,-0.50126 -1.07745,-0.50126 -0.15756,0 -0.34351,-0.0573 -0.41341,-0.12712 -0.0817,-0.0817 -0.29139,-0.12713 -0.58705,-0.12713 -0.35211,0 -0.4594,0.0298 -0.4594,0.12713 0,0.0958 -0.10318,0.12712 -0.41858,0.12712 -0.23009,0 -0.44146,0.0382 -0.47026,0.0848 -0.0288,0.0466 -0.18504,0.0847 -0.34674,0.0847 -0.18322,0 -0.31222,0.0475 -0.34262,0.12661 -0.0299,0.0779 -0.15824,0.12712 -0.33176,0.12712 -0.17197,0 -0.31285,0.0532 -0.35915,0.13591 -0.0525,0.0938 -0.0916,-0.0706 -0.12558,-0.52917 -0.0607,-0.81891 -0.30749,-1.55518 -0.75189,-2.24275 -0.90001,-1.3925 -2.39632,-2.46315 -3.8809,-2.77761 -0.26386,-0.0561 -6.19794,-0.0798 -22.6012,-0.0796 z" /><path
       id="path6638"
       style="display:inline;fill:#fefefe;stroke-width:0.0846667"
       d="m 142.78302,322.2408 c -28.08211,0.002 -40.58847,0.0293 -40.92515,0.0915 -2.167214,0.40063 -4.229912,2.22926 -4.616777,4.09278 -0.06598,0.31795 -0.08583,2.64648 -0.06718,7.80779 0.02644,7.31604 0.0274,7.35751 0.21239,7.90494 0.598905,1.77227 2.403687,3.32381 4.383197,3.76773 0.4215,0.0945 7.32902,0.11441 40.56548,0.12041 39.034,0.007 40.07431,0.003 40.69933,-0.15348 1.9529,-0.48802 3.41373,-1.53831 4.23281,-3.04323 0.42456,-0.78011 0.48111,-1.20983 0.48111,-3.63698 v -2.23243 l 0.51521,0.51522 c 1.49284,1.49284 3.21415,2.5302 4.72013,2.8453 1.07609,0.22515 1.33216,-0.14987 0.94516,-1.38441 -0.30565,-0.97503 -0.98796,-2.17642 -1.81074,-3.18999 -0.38234,-0.471 -1.38589,-1.46792 -1.80609,-1.7942 l -0.27234,-0.21187 0.44184,-0.34262 c 0.73837,-0.57258 2.29514,-2.19674 2.74557,-2.86442 0.855,-1.26735 1.19705,-2.21085 0.9312,-2.56936 -0.15737,-0.21222 -0.58977,-0.19691 -1.32343,0.047 -1.63249,0.54278 -3.37007,1.61961 -4.67982,2.89956 -0.17232,0.1684 -0.3375,0.30593 -0.3669,0.30593 -0.0291,0 -0.0443,-1.09516 -0.0331,-2.43396 0.0179,-2.13493 0.002,-2.48642 -0.12816,-2.85771 -0.32626,-0.93211 -1.0108,-1.81086 -1.97714,-2.53783 -0.64058,-0.48189 -1.07622,-0.70449 -1.9203,-0.98185 -0.49946,-0.16379 -0.99196,-0.16581 -40.94633,-0.16381 z m 40.22596,2.11666 0.54157,0.24547 c 0.65405,0.29656 1.23501,0.81133 1.66812,1.47794 l 0.32194,0.49558 -0.0294,6.82801 c -0.0161,3.7556 -0.0365,6.88574 -0.0455,6.95564 -0.009,0.0699 -0.007,0.33661 0.004,0.59273 0.0255,0.58752 -0.16784,0.98239 -0.83148,1.70119 -0.66292,0.71801 -1.42638,1.07798 -2.50992,1.18287 l -5.2e-4,-5.1e-4 c -0.43415,0.042 -18.06335,0.0753 -40.26938,0.0744 -37.8876,-7.3e-4 -39.51395,-0.007 -39.92004,-0.15399 -0.73333,-0.26522 -1.08895,-0.48698 -1.53014,-0.95395 -0.73379,-0.77668 -0.874495,-1.0949 -0.933275,-2.11098 -0.04103,-0.70929 -0.08598,-11.13052 -0.05581,-12.94702 0.0042,-0.25612 0.0085,-0.58635 0.0093,-0.7338 0.0039,-0.69435 0.974795,-1.83791 1.959575,-2.30787 l 0.6351,-0.30283 40.49262,-0.0217 z m -29.2964,4.74183 v 4.82606 4.82607 h 1.01596 1.01596 v -4.82607 -4.82606 h -1.01596 z m 26.31002,0.10491 c -0.0688,4.3e-4 -0.1365,0.006 -0.20153,0.0186 -0.3308,0.062 -0.74943,0.39261 -0.92346,0.72915 -0.28869,0.55825 -0.0523,1.33208 0.51108,1.6738 0.25541,0.1549 0.92377,0.0694 1.26039,-0.16123 0.58463,-0.40062 0.76058,-1.35162 0.34209,-1.84898 -0.21166,-0.25154 -0.61703,-0.41372 -0.98857,-0.41134 z m -28.86645,0.0971 c -0.41001,0.008 -0.82352,0.22201 -1.05317,0.66611 -0.27724,0.53615 0.0265,1.3393 0.60358,1.59525 0.0931,0.0414 0.35762,0.0613 0.58756,0.0444 0.35189,-0.0258 0.46178,-0.0787 0.69557,-0.33383 0.32236,-0.35149 0.40866,-0.61885 0.33176,-1.02888 -0.11676,-0.62238 -0.63814,-0.9533 -1.1653,-0.94309 z m -18.58698,0.6444 c -1.09332,0 -1.12227,0.005 -1.16427,0.19069 -0.0237,0.10478 -0.34998,2.01932 -0.72554,4.25452 -0.37556,2.2352 -0.70267,4.13064 -0.72657,4.21214 -0.0398,0.13596 0.051,0.14832 1.09864,0.14832 h 1.14205 l 0.047,-0.23306 c 0.0258,-0.12806 0.18154,-1.14687 0.34623,-2.26447 0.1647,-1.11759 0.32237,-2.14264 0.35037,-2.27738 0.042,-0.20253 0.21996,0.19055 1.02836,2.2686 l 0.97823,2.51406 0.46199,-0.0253 0.46199,-0.0248 1.02371,-2.49494 c 0.93788,-2.28472 1.02888,-2.46955 1.08158,-2.2009 0.0316,0.16134 0.20455,1.29324 0.38396,2.51561 l 0.32608,2.22261 h 1.12241 c 0.78906,0 1.12241,-0.0288 1.12241,-0.0972 0,-0.0535 -0.32403,-2.00006 -0.71985,-4.32531 -0.39582,-2.32526 -0.71985,-4.26247 -0.71985,-4.30517 0,-0.0432 -0.50371,-0.078 -1.13533,-0.078 h -1.13585 l -0.25012,0.65629 c -0.13764,0.36089 -0.52957,1.41002 -0.87126,2.33113 -0.55368,1.49257 -0.63167,1.65363 -0.71727,1.48156 -0.0528,-0.1062 -0.45418,-1.15532 -0.89194,-2.33112 L 133.69,329.94572 Z m 12.02097,2.65514 c -1.06898,0.0152 -2.07868,0.65315 -2.59364,1.73994 -0.24151,0.50979 -0.26458,0.63172 -0.26458,1.40922 0,0.81424 0.0137,0.87909 0.32039,1.49965 0.36934,0.7473 0.80251,1.15387 1.56166,1.46606 0.8791,0.3615 1.89932,0.23879 2.58434,-0.31058 l 0.31729,-0.25424 v 0.30024 0.30024 h 1.05834 1.05833 v -3.00551 -3.00601 h -1.05833 -1.05834 v 0.31109 0.31109 l -0.19171,-0.17983 c -0.10535,-0.099 -0.36206,-0.2544 -0.57103,-0.3452 -0.38159,-0.16576 -0.77607,-0.24165 -1.16272,-0.23616 z m 5.56607,0.13901 v 3.00601 3.00551 h 1.01596 1.01596 v -3.00551 -3.00601 h -1.01596 z m -4.92683,1.68878 c 0.94449,0.011 1.66371,0.95542 1.20613,1.90066 -0.10323,0.21325 -0.3071,0.45862 -0.45889,0.55242 -0.28969,0.17898 -0.83068,0.27801 -1.11208,0.20361 -0.27499,-0.0727 -0.70925,-0.43962 -0.85576,-0.72296 -0.31136,-0.60208 0.0125,-1.56136 0.61185,-1.81177 0.20693,-0.0865 0.41272,-0.12425 0.60875,-0.12196 z" /></g></svg>
